<svg width="49" height="49" viewBox="0 0 49 49" fill="none" xmlns="http://www.w3.org/2000/svg">
<g clip-path="url(#clip0_22_17622)">
<path fill-rule="evenodd" clip-rule="evenodd" d="M6.61223 21.7303C8.75377 20.9673 11.0073 19.9531 12.7452 18.4848C14.8092 16.7408 15.6486 14.4947 16.2123 12.1304C16.936 9.09282 17.2251 5.85709 18.1027 2.81463C18.4276 1.68478 19.0529 1.2577 19.3212 1.06816C19.9994 0.589391 20.6849 0.461416 21.3298 0.509416C22.0941 0.564801 23.144 0.854011 23.8344 2.13524C23.9329 2.31863 24.0609 2.59803 24.147 2.9808C24.2098 3.26141 24.2504 4.13893 24.3169 4.50078C24.483 5.39185 24.6221 6.28296 24.7526 7.17896C25.187 10.1611 25.4369 12.694 26.8092 15.4337C28.6713 19.1531 30.5372 21.4288 33.0677 22.4368C35.5144 23.4115 38.44 23.2282 42.1778 22.4639C42.5335 22.3777 42.8855 22.3039 43.2338 22.2436C44.8818 21.9556 46.4572 23.0374 46.7809 24.6793C47.1046 26.3199 46.0572 27.9186 44.424 28.2792C44.083 28.3543 43.747 28.4257 43.4147 28.4909C38.3637 29.7414 32.5162 34.2042 29.1181 38.1119C28.0707 39.3168 26.5372 42.6854 24.9729 44.8343C23.8184 46.4195 22.5212 47.4645 21.4319 47.8337C20.7021 48.0823 20.0867 48.0442 19.5784 47.9187C18.84 47.7365 18.2271 47.3365 17.7569 46.7002C17.5009 46.3518 17.2633 45.8854 17.1501 45.2897C17.0959 45.0029 17.0898 44.2744 17.091 43.9445C16.7723 42.8479 16.3821 41.7771 16.0978 40.6706C15.4196 38.0306 14.0892 36.3592 12.5089 34.1512C11.0307 32.0848 9.44307 30.7863 7.11568 29.75C6.81291 29.6762 4.36983 29.078 3.50706 28.7346C2.24675 28.2312 1.6461 27.3882 1.42826 26.934C1.0578 26.1635 1.01968 25.4903 1.09352 24.9291C1.20306 24.1008 1.57476 23.3919 2.23445 22.8196C2.64306 22.4639 3.25353 22.118 4.07076 21.9494C4.70215 21.8177 6.37715 21.7414 6.61223 21.7303ZM20.9446 17.4275C21.0578 17.6798 21.1784 17.9334 21.3064 18.1894C24.0338 23.6368 27.0836 26.678 30.7907 28.1537L30.915 28.2017C28.435 30.043 26.1901 32.1008 24.4744 34.0737C23.7679 34.886 22.8326 36.5734 21.8221 38.3039C20.904 35.3193 19.4024 33.2097 17.5144 30.5697C16.072 28.555 14.5606 27.0387 12.7033 25.803C14.1446 25.0633 15.5193 24.1968 16.7169 23.1851C18.7107 21.5002 20.0289 19.5482 20.9446 17.4275Z" fill="#FDE047"/>
</g>
<defs>
<clipPath id="clip0_22_17622">
<rect width="48" height="48" fill="white" transform="translate(0.5 0.5)"/>
</clipPath>
</defs>
</svg>
